STARTFONT 2.1
COMMENT This font was automatically resized by bdfresize-1.5
COMMENT   mag_x = 2/1, mag_y = 2/1, blackness = 4
FONT -Misc-xbmicons24-Medium-R-Normal--24-240-72-72-C-120-ISO10646-1
SIZE 24 72 72
FONTBOUNDINGBOX 18 24 0 -4
STARTPROPERTIES 22
POINT_SIZE 240
PIXEL_SIZE 24
RESOLUTION_X 72
RESOLUTION_Y 72
AVERAGE_WIDTH 120
SPACING "C"
_GBDFED_INFO "Edited with gbdfed 1.6."
FAMILY_NAME "xbmicons24"
CHARSET_REGISTRY "ISO10646"
CHARSET_ENCODING "1"
FOUNDRY "Misc"
COPYRIGHT "GPLv2"
MIN_SPACE 6
QUAD_WIDTH 6
SETWIDTH_NAME "Normal"
SLANT "R"
WEIGHT 10
WEIGHT_NAME "Medium"
X_HEIGHT 10
DEFAULT_CHAR 0
FONT_DESCENT 4
FONT_ASCENT 20
ENDPROPERTIES
CHARS 50
STARTCHAR U+E000
ENCODING 57344
SWIDTH 1500 0
DWIDTH 18 0
BBX 18 24 0 -4
BITMAP
000000
000000
000000
000000
0FF000
0FF000
3C3C00
3C3C00
FF3F00
FF3F00
FF3300
FF3300
CC3300
CC3300
CC3F00
CC3F00
30FC00
30FC00
0FF000
0FF000
000000
000000
000000
000000
ENDCHAR
STARTCHAR U+E001
ENCODING 57345
SWIDTH 1500 0
DWIDTH 18 0
BBX 18 24 0 -4
BITMAP
000000
000000
000000
000000
3C0000
3C0000
FCF000
FCF000
F3FC00
F3FC00
33FC00
33FC00
FCF000
FCF000
F3FC00
F3FC00
0FFF00
0FFF00
0FFF00
0FFF00
000000
000000
000000
000000
ENDCHAR
STARTCHAR char57346
ENCODING 57346
SWIDTH 1500 0
DWIDTH 18 0
BBX 18 24 0 -4
BITMAP
000000
000000
000000
000000
3FFC00
3FFC00
FFFF00
FFFF00
C00300
C00300
CC0300
CC0300
C30300
C30300
CC0300
CC0300
C00300
C00300
3FFC00
3FFC00
000000
000000
000000
000000
ENDCHAR
STARTCHAR char57347
ENCODING 57347
SWIDTH 1500 0
DWIDTH 18 0
BBX 18 24 0 -4
BITMAP
000000
000000
000000
000000
3FFC00
3FFC00
FFFF00
FFFF00
C00300
C00300
CFF300
CFF300
C00300
C00300
CFF300
CFF300
C00300
C00300
3FFC00
3FFC00
000000
000000
000000
000000
ENDCHAR
STARTCHAR char57347
ENCODING 57348
SWIDTH 1500 0
DWIDTH 18 0
BBX 18 24 0 -4
BITMAP
000000
000000
000000
000000
3FFC00
3FFC00
FFFF00
FFFF00
C00300
C00300
CC3300
CC3300
C00300
C00300
CFF300
CFF300
C00300
C00300
3FFC00
3FFC00
000000
000000
000000
000000
ENDCHAR
STARTCHAR char57348
ENCODING 57349
SWIDTH 1500 0
DWIDTH 18 0
BBX 18 24 0 -4
BITMAP
000000
000000
000000
000000
FFFC00
FFFC00
CF3300
CF3300
CF3300
CF3300
CFF300
CFF300
C00300
C00300
C00300
C00300
C00300
C00300
FFFF00
FFFF00
000000
000000
000000
000000
ENDCHAR
STARTCHAR char57349
ENCODING 57350
SWIDTH 1500 0
DWIDTH 18 0
BBX 18 24 0 -4
BITMAP
000000
000000
000000
000000
0FF000
0FF000
3F3C00
3F3C00
FC3F00
FC3F00
FFFF00
FFFF00
FC0000
FC0000
FFC000
FFC000
3FFC00
3FFC00
0FF000
0FF000
000000
000000
000000
000000
ENDCHAR
STARTCHAR char57350
ENCODING 57351
SWIDTH 1500 0
DWIDTH 18 0
BBX 18 24 0 -4
BITMAP
000000
000000
00C000
00C000
00C000
00C000
03F000
03F000
03F000
03F000
0FFC00
0FFC00
0FFC00
0FFC00
3F3F00
3F3F00
3C0F00
3C0F00
FC0FC0
FC0FC0
C000C0
C000C0
000000
000000
ENDCHAR
STARTCHAR char57351
ENCODING 57352
SWIDTH 1500 0
DWIDTH 18 0
BBX 18 24 0 -4
BITMAP
000000
000000
000000
000000
FFFF00
FFFF00
C00300
C00300
C00300
C00300
C00300
C00300
C00300
C00300
FFFF00
FFFF00
03C000
03C000
FFFF00
FFFF00
000000
000000
000000
000000
ENDCHAR
STARTCHAR char57352
ENCODING 57353
SWIDTH 1500 0
DWIDTH 18 0
BBX 18 24 0 -4
BITMAP
000000
000000
000000
000000
FF3F00
FF3F00
FF3F00
FF3F00
FF0000
FF0000
003F00
003F00
FF3F00
FF3F00
FF0000
FF0000
FF3F00
FF3F00
FF3F00
FF3F00
000000
000000
000000
000000
ENDCHAR
STARTCHAR char57353
ENCODING 57354
SWIDTH 1500 0
DWIDTH 18 0
BBX 18 24 0 -4
BITMAP
000000
000000
000000
000000
FFC000
FFC000
FFC000
FFC000
FFC000
FFC000
FFCF00
FFCF00
FFCF00
FFCF00
000F00
000F00
03FF00
03FF00
03FF00
03FF00
000000
000000
000000
000000
ENDCHAR
STARTCHAR char57354
ENCODING 57355
SWIDTH 1500 0
DWIDTH 18 0
BBX 18 24 0 -4
BITMAP
000000
000000
000000
000000
FFFF00
FFFF00
FFFF00
FFFF00
FFFF00
FFFF00
FFFF00
FFFF00
FFFF00
FFFF00
FFFF00
FFFF00
FFFF00
FFFF00
FFFF00
FFFF00
000000
000000
000000
000000
ENDCHAR
STARTCHAR char57355
ENCODING 57356
SWIDTH 1500 0
DWIDTH 18 0
BBX 18 24 0 -4
BITMAP
000000
000000
000000
000000
FCFF00
FCFF00
FCFF00
FCFF00
FCFF00
FCFF00
FCFF00
FCFF00
000000
000000
F3CF00
F3CF00
F3CF00
F3CF00
F3CF00
F3CF00
000000
000000
000000
000000
ENDCHAR
STARTCHAR char57356
ENCODING 57357
SWIDTH 1500 0
DWIDTH 18 0
BBX 18 24 0 -4
BITMAP
000000
000000
000000
000000
F3CF00
F3CF00
F3CF00
F3CF00
000000
000000
F3CF00
F3CF00
F3CF00
F3CF00
000000
000000
F3CF00
F3CF00
F3CF00
F3CF00
000000
000000
000000
000000
ENDCHAR
STARTCHAR char57357
ENCODING 57358
SWIDTH 1500 0
DWIDTH 18 0
BBX 18 24 0 -4
BITMAP
000000
000000
000000
000000
0FFF00
0FFF00
0FFF00
0FFF00
0C0300
0C0300
0C0300
0C0300
0C0300
0C0300
0C0300
0C0300
FC3F00
FC3F00
FC3F00
FC3F00
000000
000000
000000
000000
ENDCHAR
STARTCHAR char57358
ENCODING 57359
SWIDTH 1500 0
DWIDTH 18 0
BBX 18 24 0 -4
BITMAP
000000
000000
000000
000000
F3CF00
F3CF00
C00300
C00300
0FF000
0FF000
CFF300
CFF300
CFF300
CFF300
0FF000
0FF000
C00300
C00300
F3CF00
F3CF00
000000
000000
000000
000000
ENDCHAR
STARTCHAR char57359
ENCODING 57360
SWIDTH 1500 0
DWIDTH 18 0
BBX 18 24 0 -4
BITMAP
000000
000000
000000
000000
CCCC00
CCCC00
000000
000000
FFFC00
FFFC00
FFFC00
FFFC00
FFFC00
FFFC00
FFFC00
FFFC00
000000
000000
CCCC00
CCCC00
000000
000000
000000
000000
ENDCHAR
STARTCHAR char57360
ENCODING 57361
SWIDTH 1500 0
DWIDTH 18 0
BBX 18 24 0 -4
BITMAP
000000
000000
000000
000000
0FC000
0FC000
0FC000
0FC000
0FC000
0FC000
0FC000
0FC000
FFFC00
FFFC00
3FF000
3FF000
0FC000
0FC000
030000
030000
000000
000000
000000
000000
ENDCHAR
STARTCHAR char57361
ENCODING 57362
SWIDTH 1500 0
DWIDTH 18 0
BBX 18 24 0 -4
BITMAP
000000
000000
000000
000000
030000
030000
0FC000
0FC000
3FF000
3FF000
FFFC00
FFFC00
0FC000
0FC000
0FC000
0FC000
0FC000
0FC000
0FC000
0FC000
000000
000000
000000
000000
ENDCHAR
STARTCHAR char57398
ENCODING 57363
SWIDTH 1500 0
DWIDTH 18 0
BBX 18 24 0 -4
BITMAP
000000
000000
03F000
03F000
033000
033000
03F000
03F000
00C000
00C000
FFFFC0
FFFFC0
0C0C00
0C0C00
3F3F00
3F3F00
333300
333300
3F3F00
3F3F00
000000
000000
000000
000000
ENDCHAR
STARTCHAR char57363
ENCODING 57364
SWIDTH 1500 0
DWIDTH 18 0
BBX 18 24 0 -4
BITMAP
000000
000000
000000
000000
000000
000000
FFFFC0
FFFFC0
CFFCC0
CFFCC0
F3F3C0
F3F3C0
FCCFC0
FCCFC0
F333C0
F333C0
CFFCC0
CFFCC0
FFFFC0
FFFFC0
000000
000000
000000
000000
ENDCHAR
STARTCHAR char57364
ENCODING 57365
SWIDTH 1500 0
DWIDTH 18 0
BBX 18 24 0 -4
BITMAP
000000
000000
000000
000000
030000
030000
0F0C00
0F0C00
FF0300
FF0300
FF3300
FF3300
FF3300
FF3300
FF0300
FF0300
0F0C00
0F0C00
030000
030000
000000
000000
000000
000000
ENDCHAR
STARTCHAR char57365
ENCODING 57366
SWIDTH 1500 0
DWIDTH 18 0
BBX 18 24 0 -4
BITMAP
000000
000000
000000
000000
0FF000
0FF000
3CFC00
3CFC00
FCFF00
FCFF00
FCFF00
FCFF00
FC0300
FC0300
FFFF00
FFFF00
3FFC00
3FFC00
0FF000
0FF000
000000
000000
000000
000000
ENDCHAR
STARTCHAR char57366
ENCODING 57367
SWIDTH 1500 0
DWIDTH 18 0
BBX 18 24 0 -4
BITMAP
000000
000000
000000
000000
FFFF00
FFFF00
FFFF00
FFFF00
03C000
03C000
03C000
03C000
FFFF00
FFFF00
F3CF00
F3CF00
F00F00
F00F00
FFFF00
FFFF00
000000
000000
000000
000000
ENDCHAR
STARTCHAR char57367
ENCODING 57368
SWIDTH 1500 0
DWIDTH 18 0
BBX 18 24 0 -4
BITMAP
C00000
C00000
F00000
F00000
FC0000
FC0000
FF0000
FF0000
FFC000
FFC000
FFF000
FFF000
FFF000
FFF000
FFC000
FFC000
FF0000
FF0000
FC0000
FC0000
F00000
F00000
C00000
C00000
ENDCHAR
STARTCHAR char57368
ENCODING 57369
SWIDTH 1500 0
DWIDTH 18 0
BBX 18 24 0 -4
BITMAP
C00000
C00000
300000
300000
0C0000
0C0000
030000
030000
00C000
00C000
003000
003000
003000
003000
00C000
00C000
030000
030000
0C0000
0C0000
300000
300000
C00000
C00000
ENDCHAR
STARTCHAR char57369
ENCODING 57370
SWIDTH 1500 0
DWIDTH 18 0
BBX 18 24 0 -4
BITMAP
003000
003000
00F000
00F000
03F000
03F000
0FF000
0FF000
3FF000
3FF000
FFF000
FFF000
FFF000
FFF000
3FF000
3FF000
0FF000
0FF000
03F000
03F000
00F000
00F000
003000
003000
ENDCHAR
STARTCHAR char57370
ENCODING 57371
SWIDTH 1500 0
DWIDTH 18 0
BBX 18 24 0 -4
BITMAP
003000
003000
00C000
00C000
030000
030000
0C0000
0C0000
300000
300000
C00000
C00000
C00000
C00000
300000
300000
0C0000
0C0000
030000
030000
00C000
00C000
003000
003000
ENDCHAR
STARTCHAR char57372
ENCODING 57372
SWIDTH 1500 0
DWIDTH 18 0
BBX 18 24 0 -4
BITMAP
C00000
C00000
F00000
F00000
FC0000
FC0000
FF0000
FF0000
FFC000
FFC000
FFC000
FFC000
FFC000
FFC000
FFC000
FFC000
FFC000
FFC000
FFC000
FFC000
FFC000
FFC000
FFC000
FFC000
ENDCHAR
STARTCHAR char57373
ENCODING 57373
SWIDTH 1500 0
DWIDTH 18 0
BBX 18 24 0 -4
BITMAP
3FF000
3FF000
3FF000
3FF000
3FF000
3FF000
3FF000
3FF000
3FF000
3FF000
3FF000
3FF000
3FF000
3FF000
3FF000
3FF000
0FF000
0FF000
03F000
03F000
00F000
00F000
003000
003000
ENDCHAR
STARTCHAR char57374
ENCODING 57374
SWIDTH 1500 0
DWIDTH 18 0
BBX 18 24 0 -4
BITMAP
000000
000000
000000
000000
000000
000000
3FFF00
3FFF00
C000C0
C000C0
0FFC00
0FFC00
300300
300300
03F000
03F000
000000
000000
00C000
00C000
000000
000000
000000
000000
ENDCHAR
STARTCHAR char57397
ENCODING 57375
SWIDTH 1500 0
DWIDTH 18 0
BBX 18 24 0 -4
BITMAP
000000
000000
000000
000000
3FFC00
3FFC00
FFFF00
FFFF00
FFFF00
FFFF00
FFFF00
FFFF00
FFFF00
FFFF00
3FFC00
3FFC00
00F000
00F000
03C000
03C000
000000
000000
000000
000000
ENDCHAR
STARTCHAR char57376
ENCODING 57376
SWIDTH 1500 0
DWIDTH 18 0
BBX 18 24 0 -4
BITMAP
00C000
00C000
00C000
00C000
00C000
00C000
00C000
00C000
00C000
00C000
00C000
00C000
00C000
00C000
00C000
00C000
00C000
00C000
00C000
00C000
00C000
00C000
00C000
00C000
ENDCHAR
STARTCHAR char57377
ENCODING 57377
SWIDTH 1500 0
DWIDTH 18 0
BBX 18 24 0 -4
BITMAP
000000
000000
000000
000000
FFFF00
FFFF00
C00300
C00300
C00300
C00300
C00300
C00300
C00300
C00300
FFFF00
FFFF00
03C000
03C000
FFFF00
FFFF00
000000
000000
000000
000000
ENDCHAR
STARTCHAR char57378
ENCODING 57378
SWIDTH 1500 0
DWIDTH 18 0
BBX 18 24 0 -4
BITMAP
000000
000000
000000
000000
FF3F00
FF3F00
FF3F00
FF3F00
FF0000
FF0000
003F00
003F00
FF3F00
FF3F00
FF0000
FF0000
FF3F00
FF3F00
FF3F00
FF3F00
000000
000000
000000
000000
ENDCHAR
STARTCHAR char57379
ENCODING 57379
SWIDTH 1500 0
DWIDTH 18 0
BBX 18 24 0 -4
BITMAP
000000
000000
000000
000000
FFC000
FFC000
FFC000
FFC000
FFC000
FFC000
FFCF00
FFCF00
FFCF00
FFCF00
000F00
000F00
03FF00
03FF00
03FF00
03FF00
000000
000000
000000
000000
ENDCHAR
STARTCHAR char57396
ENCODING 57380
SWIDTH 1500 0
DWIDTH 18 0
BBX 18 24 0 -4
BITMAP
000000
000000
000000
000000
000000
000000
FFFFC0
FFFFC0
CFFCC0
CFFCC0
F3F3C0
F3F3C0
FCCFC0
FCCFC0
F333C0
F333C0
CFFCC0
CFFCC0
FFFFC0
FFFFC0
000000
000000
000000
000000
ENDCHAR
STARTCHAR char57381
ENCODING 57381
SWIDTH 1500 0
DWIDTH 18 0
BBX 18 24 0 -4
BITMAP
000000
000000
000000
000000
FCFF00
FCFF00
FCFF00
FCFF00
FCFF00
FCFF00
FCFF00
FCFF00
000000
000000
F3CF00
F3CF00
F3CF00
F3CF00
F3CF00
F3CF00
000000
000000
000000
000000
ENDCHAR
STARTCHAR char57382
ENCODING 57382
SWIDTH 1500 0
DWIDTH 18 0
BBX 18 24 0 -4
BITMAP
000000
000000
000000
000000
F3CF00
F3CF00
F3CF00
F3CF00
000000
000000
F3CF00
F3CF00
F3CF00
F3CF00
000000
000000
F3CF00
F3CF00
F3CF00
F3CF00
000000
000000
000000
000000
ENDCHAR
STARTCHAR char57383
ENCODING 57383
SWIDTH 1500 0
DWIDTH 18 0
BBX 18 24 0 -4
BITMAP
000000
000000
000000
000000
F3CF00
F3CF00
C00300
C00300
0FF000
0FF000
CFF300
CFF300
CFF300
CFF300
0FF000
0FF000
C00300
C00300
F3CF00
F3CF00
000000
000000
000000
000000
ENDCHAR
STARTCHAR char57384
ENCODING 57384
SWIDTH 1500 0
DWIDTH 18 0
BBX 18 24 0 -4
BITMAP
000000
000000
000000
000000
000F00
000F00
003300
003300
00CC00
00CC00
03F000
03F000
3FC000
3FC000
FF0000
FF0000
FF0000
FF0000
3C0000
3C0000
000000
000000
000000
000000
ENDCHAR
STARTCHAR char57385
ENCODING 57385
SWIDTH 1500 0
DWIDTH 18 0
BBX 18 24 0 -4
BITMAP
000000
000000
000000
000000
CCCC00
CCCC00
000000
000000
FFFC00
FFFC00
FFFC00
FFFC00
FFFC00
FFFC00
FFFC00
FFFC00
000000
000000
CCCC00
CCCC00
000000
000000
000000
000000
ENDCHAR
STARTCHAR char57399
ENCODING 57386
SWIDTH 1500 0
DWIDTH 18 0
BBX 18 24 0 -4
BITMAP
000000
000000
000000
000000
000F00
000F00
000F00
000F00
000F00
000F00
03CF00
03CF00
03CF00
03CF00
03CF00
03CF00
F3CF00
F3CF00
F3CF00
F3CF00
000000
000000
000000
000000
ENDCHAR
STARTCHAR char57393
ENCODING 57387
SWIDTH 1500 0
DWIDTH 18 0
BBX 18 24 0 -4
BITMAP
000000
000000
000000
000000
030000
030000
0F0C00
0F0C00
FF0300
FF0300
FF3300
FF3300
FF3300
FF3300
FF0300
FF0300
0F0C00
0F0C00
030000
030000
000000
000000
000000
000000
ENDCHAR
STARTCHAR char57388
ENCODING 57388
SWIDTH 1500 0
DWIDTH 18 0
BBX 18 24 0 -4
BITMAP
000000
000000
000000
000000
03C000
03C000
3FFC00
3FFC00
300C00
300C00
300C00
300C00
300C00
300C00
300C00
300C00
300C00
300C00
3FFC00
3FFC00
000000
000000
000000
000000
ENDCHAR
STARTCHAR char57389
ENCODING 57389
SWIDTH 1500 0
DWIDTH 18 0
BBX 18 24 0 -4
BITMAP
000000
000000
000000
000000
03C000
03C000
3FFC00
3FFC00
300C00
300C00
300C00
300C00
300C00
300C00
33CC00
33CC00
300C00
300C00
3FFC00
3FFC00
000000
000000
000000
000000
ENDCHAR
STARTCHAR char57390
ENCODING 57390
SWIDTH 1500 0
DWIDTH 18 0
BBX 18 24 0 -4
BITMAP
000000
000000
000000
000000
03C000
03C000
3FFC00
3FFC00
300C00
300C00
33CC00
33CC00
33CC00
33CC00
33CC00
33CC00
300C00
300C00
3FFC00
3FFC00
000000
000000
000000
000000
ENDCHAR
STARTCHAR char57391
ENCODING 57391
SWIDTH 1500 0
DWIDTH 18 0
BBX 18 24 0 -4
BITMAP
000000
000000
000000
000000
003000
003000
00F000
00F000
03C000
03C000
0FF000
0FF000
03FC00
03FC00
00F000
00F000
03C000
03C000
030000
030000
000000
000000
000000
000000
ENDCHAR
STARTCHAR char57392
ENCODING 57392
SWIDTH 1500 0
DWIDTH 18 0
BBX 18 24 0 -4
BITMAP
000000
000000
000000
000000
0C3000
0C3000
0C3000
0C3000
3FFC00
3FFC00
0FF000
0FF000
0FF000
0FF000
0FF000
0FF000
03C000
03C000
03C000
03C000
000000
000000
000000
000000
ENDCHAR
STARTCHAR char57393
ENCODING 57393
SWIDTH 1500 0
DWIDTH 18 0
BBX 18 24 0 -4
BITMAP
00F000
00F000
00F000
00F000
00F000
00F000
00F000
00F000
00F000
00F000
00F000
00F000
00F000
00F000
00F000
00F000
00F000
00F000
00F000
00F000
00F000
00F000
00F000
00F000
ENDCHAR
ENDFONT
